<svg height="512pt" viewBox="0 -53 512 512" width="512pt" xmlns="http://www.w3.org/2000/svg"><path d="m0 297.667969v40.25c0 2.277343 1.84375 4.121093 4.121094 4.121093h310.011718v-48.492187h-310.011718c-2.277344.003906-4.121094 1.847656-4.121094 4.121094zm0 0" fill="#ce675d"/><path d="m265.78125 293.550781h48.351562v48.488281h-48.351562zm0 0" fill="#aa4b44"/><path d="m10.566406 14.421875v279.128906h281.792969v-279.128906c0-7.964844-6.457031-14.421875-14.421875-14.421875h-252.945312c-7.96875 0-14.425782 6.457031-14.425782 14.421875zm0 0" fill="#f9aa4b"/><path d="m277.9375 0h-25.753906c7.964844 0 14.421875 6.457031 14.421875 14.421875v279.128906h25.757812v-279.128906c0-7.964844-6.460937-14.421875-14.425781-14.421875zm0 0" fill="#c1762b"/><path d="m192.484375 101.71875-17.992187-13.539062c-.640626-.480469-1.519532-.480469-2.15625 0l-19.78125 14.886718c-.640626.480469-1.519532.480469-2.15625 0l-19.796876-14.886718c-.636718-.480469-1.515624-.480469-2.15625 0l-18 13.539062c-1.183593.886719-2.871093.046875-2.871093-1.433594v-100.285156h87.78125v100.28125c0 1.480469-1.6875 2.324219-2.871094 1.4375zm0 0" fill="#ffeb96"/><path d="m44.136719 193.300781v55.835938c0 4.4375 3.59375 8.035156 8.03125 8.035156h85.445312c4.4375 0 8.03125-3.597656 8.03125-8.035156v-55.835938c0-4.4375-3.59375-8.035156-8.03125-8.035156h-85.445312c-4.433594 0-8.03125 3.597656-8.03125 8.035156zm0 0" fill="#f0f0f2"/><path d="m497.707031 342.039062h-205.34375v-200.296874c0-7.894532 6.398438-14.292969 14.292969-14.292969h98.707031c58.894531 0 106.636719 47.742187 106.636719 106.636719v93.660156c0 7.894531-6.398438 14.292968-14.292969 14.292968zm0 0" fill="#8cbafa"/><path d="m405.363281 127.449219h-23.179687c58.894531 0 106.636718 47.742187 106.636718 106.636719v93.660156c0 7.894531-6.398437 14.292968-14.292968 14.292968h23.179687c7.894531 0 14.292969-6.398437 14.292969-14.292968v-93.660156c0-58.894532-47.742188-106.636719-106.636719-106.636719zm0 0" fill="#5692d8"/><path d="m405.363281 127.449219h-66.492187v70.910156c0 9.898437 8.027344 17.925781 17.929687 17.925781h10.289063c6.042968 0 11.675781 3.042969 14.988281 8.097656l14.792969 22.5625c3.3125 5.054688 8.949218 8.097657 14.992187 8.097657h100.136719v-20.957031c0-58.894532-47.742188-106.636719-106.636719-106.636719zm0 0" fill="#def6ff"/><path d="m505.527344 197.421875c-.597656-1.636719-1.234375-3.25-1.90625-4.84375-1.6875-3.988281-3.609375-7.851563-5.75-11.574219-.855469-1.488281-1.746094-2.953125-2.671875-4.394531-2.3125-3.605469-4.835938-7.0625-7.550781-10.355469-9.234376-11.191406-20.710938-20.46875-33.738282-27.140625-.765625-.390625-1.539062-.777343-2.316406-1.148437-13.984375-6.742188-29.667969-10.519532-46.230469-10.519532h-23.175781c58.890625.003907 106.632812 47.746094 106.632812 106.640626v20.960937h23.179688v-20.960937c0-12.882813-2.285156-25.234376-6.472656-36.664063zm0 0" fill="#c8e7f7"/><path d="m462.699219 346.324219c0 32.621093-26.449219 59.070312-59.070313 59.070312-32.625 0-59.070312-26.449219-59.070312-59.070312 0-32.625 26.445312-59.070313 59.070312-59.070313 32.621094 0 59.070313 26.445313 59.070313 59.070313zm0 0" fill="#575b7a"/><path d="m435.214844 296.417969c6.707031 9.585937 10.65625 21.242187 10.65625 33.828125 0 32.621094-26.445313 59.070312-59.070313 59.070312-11.621093 0-22.449219-3.371094-31.585937-9.164062 10.683594 15.253906 28.375 25.242187 48.414062 25.242187 32.625 0 59.070313-26.449219 59.070313-59.070312 0-21.003907-10.972657-39.433594-27.484375-49.90625zm0 0" fill="#252d4c"/><path d="m424.417969 346.324219c0 11.480469-9.308594 20.789062-20.789063 20.789062-11.480468 0-20.789062-9.308593-20.789062-20.789062 0-11.484375 9.308594-20.789063 20.789062-20.789063 11.480469 0 20.789063 9.304688 20.789063 20.789063zm0 0" fill="#f0f0f2"/><path d="m167.785156 346.324219c0 32.621093-26.445312 59.070312-59.066406 59.070312-32.625 0-59.070312-26.449219-59.070312-59.070312 0-32.625 26.445312-59.070313 59.070312-59.070313 32.621094 0 59.066406 26.445313 59.066406 59.070313zm0 0" fill="#575b7a"/><path d="m140.300781 296.417969c6.710938 9.585937 10.660157 21.242187 10.660157 33.828125 0 32.621094-26.449219 59.070312-59.070313 59.070312-11.621094 0-22.449219-3.371094-31.585937-9.164062 10.679687 15.253906 28.375 25.242187 48.410156 25.242187 32.625 0 59.070312-26.449219 59.070312-59.070312 0-21.003907-10.96875-39.433594-27.484375-49.90625zm0 0" fill="#252d4c"/><path d="m129.507812 346.324219c0 11.480469-9.308593 20.789062-20.789062 20.789062-11.484375 0-20.789062-9.308593-20.789062-20.789062 0-11.484375 9.304687-20.789063 20.789062-20.789063 11.480469 0 20.789062 9.304688 20.789062 20.789063zm0 0" fill="#f0f0f2"/><g fill="#6a7193"><path d="m86.648438 216.664062h-16.484376c-4.140624 0-7.5-3.355468-7.5-7.5 0-4.140624 3.359376-7.5 7.5-7.5h16.484376c4.140624 0 7.5 3.359376 7.5 7.5 0 4.144532-3.359376 7.5-7.5 7.5zm0 0"/><path d="m119.617188 240.773438h-49.453126c-4.140624 0-7.5-3.359376-7.5-7.5 0-4.144532 3.359376-7.5 7.5-7.5h49.453126c4.140624 0 7.5 3.355468 7.5 7.5 0 4.140624-3.359376 7.5-7.5 7.5zm0 0"/></g></svg>