<svg id="Capa_1" enable-background="new 0 0 512 512" height="512" viewBox="0 0 512 512" width="512" xmlns="http://www.w3.org/2000/svg"><g><path d="m511.878 305.912c-.639 6.933-1.514 15.298-2.668 24.312-1.12 8.756-13.482 18.124-15.171 27.39-1.323 7.262 8.144 14.461 6.424 21.255-2.503 9.91-5.45 18.955-8.891 26.084h-183.566l6.542-250.426c9.642-.123 20.459-.041 31.74.299 21.595.633 44.944 2.179 65.171 4.928 6.418.872 11.978 4.867 14.853 10.672 8.905 17.979 27.926 59.485 34.027 97.308 0 0 16.71 2.926 33.491 9.302 11.816 4.492 19.223 16.287 18.048 28.876z" fill="#c3bec6"/><path d="m341.919 404.954h-33.913l6.542-250.426c9.642-.123 20.459-.041 31.74.299-7.593 44.905-20.501 146.521-4.369 250.127z" fill="#b4acb7"/><path d="m509.21 330.224c-1.998 15.618-4.831 33.182-8.746 48.645h-6.871c-11.703 0-21.18-9.478-21.18-21.18v-6.274c0-11.703 9.478-21.191 21.18-21.191z" fill="#ffef4a"/><path d="m429.552 267.739h-78.52v-82.752c17.254.473 34.18 1.807 50.573 3.965 8.353 17.435 22.308 49.372 27.947 78.787z" fill="#f9f6f9"/><path d="m429.551 275.465h-78.52c-4.268 0-7.726-3.459-7.726-7.726v-82.752c0-2.086.843-4.083 2.338-5.538 1.495-1.454 3.521-2.25 5.6-2.186 17.407.476 34.69 1.831 51.37 4.028 2.589.341 4.83 1.967 5.959 4.322 8.158 17.026 22.717 50.146 28.568 80.671.434 2.263-.165 4.601-1.633 6.377s-3.652 2.804-5.956 2.804zm-70.793-15.452h61.196c-5.87-24.029-16.412-48.73-23.522-63.929-12.308-1.505-24.933-2.541-37.674-3.093z" fill="#b4acb7"/><path d="m155.106 404.954h152.899c10.992-114.824 10.992-229.648 0-344.471-99.917-12.63-199.834-12.63-299.762 0-10.992 114.824-10.992 229.648 0 344.471h34.789z" fill="#da4a54"/><path d="m34.977 404.954h-26.733c-10.992-114.824-10.992-229.648 0-344.471 9.024-1.143 18.038-2.174 27.063-3.101-10.869 115.853-10.971 231.718-.33 347.572z" fill="#d82e3d"/><path d="m491.573 412.454h-483.329c-4.143 0-7.5-3.358-7.5-7.5s3.357-7.5 7.5-7.5h483.329c4.143 0 7.5 3.358 7.5 7.5s-3.357 7.5-7.5 7.5z" fill="#f9f6f9"/><circle cx="395.365" cy="404.952" fill="#665e66" r="56.039"/><path d="m401.528 460.643c-2.019.227-4.079.34-6.171.34-30.946 0-56.031-25.085-56.031-56.032 0-30.957 25.085-56.042 56.031-56.042 2.091 0 4.152.113 6.171.34-28.052 3.07-49.871 26.836-49.871 55.702s21.819 52.622 49.871 55.692z" fill="#544f57"/><circle cx="99.068" cy="404.952" fill="#665e66" r="56.039"/><circle cx="395.365" cy="404.952" fill="#f9f6f9" r="25.549"/><circle cx="99.068" cy="404.952" fill="#f9f6f9" r="25.549"/><path d="m105.918 429.563c-2.174.608-4.481.938-6.851.938-14.113 0-25.548-11.445-25.548-25.549 0-14.113 11.435-25.548 25.548-25.548 2.369 0 4.677.319 6.851.937-10.786 2.988-18.698 12.867-18.698 24.611 0 11.733 7.912 21.623 18.698 24.611z" fill="#e2dfe2"/><path d="m402.215 429.563c-2.174.608-4.481.938-6.851.938-14.113 0-25.548-11.445-25.548-25.549 0-14.113 11.435-25.548 25.548-25.548 2.369 0 4.677.319 6.851.937-10.786 2.988-18.698 12.867-18.698 24.611 0 11.733 7.912 21.623 18.698 24.611z" fill="#e2dfe2"/><g fill="#d82e3d"><path d="m66.834 323.64c-10.923 0-19.778-8.855-19.778-19.778v-192.291c0-10.923 8.855-19.778 19.778-19.778 10.923 0 19.778 8.855 19.778 19.778v192.291c.001 10.923-8.854 19.778-19.778 19.778z"/><path d="m158.127 323.64c-10.923 0-19.778-8.855-19.778-19.778v-192.291c0-10.923 8.855-19.778 19.778-19.778 10.923 0 19.778 8.855 19.778 19.778v192.291c0 10.923-8.855 19.778-19.778 19.778z"/><path d="m249.419 323.64c-10.923 0-19.778-8.855-19.778-19.778v-192.291c0-10.923 8.855-19.778 19.778-19.778 10.923 0 19.778 8.855 19.778 19.778v192.291c.001 10.923-8.854 19.778-19.778 19.778z"/></g><path d="m105.235 460.645c-2.019.227-4.079.34-6.171.34-30.946 0-56.031-25.085-56.031-56.032 0-30.957 25.085-56.042 56.031-56.042 2.091 0 4.152.113 6.171.34-28.052 3.07-49.871 26.836-49.871 55.702s21.82 52.622 49.871 55.692z" fill="#544f57"/></g></svg>